<svg xmlns="http://www.w3.org/2000/svg" viewBox="0 0 200 50" fill="none">
  <rect width="200" height="50" rx="8" fill="transparent"/>
  <path d="M8 28a4 4 0 0 1 4-4h2l3-8h12l3 8h2a4 4 0 0 1 4 4v2a2 2 0 0 1-2 2h-2a4 4 0 0 1-8 0h-4a4 4 0 0 1-8 0h-2a2 2 0 0 1-2-2v-2z" fill="#1e293b"/>
  <circle cx="16" cy="30" r="2" fill="#fff"/>
  <circle cx="28" cy="30" r="2" fill="#fff"/>
  <text x="42" y="32" font-family="system-ui, -apple-system, sans-serif" font-size="20" font-weight="700" fill="#1e293b">CarbControl</text>
</svg>
